Coordinates
version=1
nRows=10
nColumns=22
inDegrees=yes

Units are S.I. units (second, meters, Newtons, ...)
If the header above contains a line with 'inDegrees', this indicates whether rotational values are in degrees (yes) or radians (no).

endheader
time	pelvis_tilt	pelvis_list	pelvis_rotation	pelvis_tx	pelvis_ty	pelvis_tz	hip_flexion_r	hip_adduction_r	hip_rotation_r	knee_angle_r	ankle_angle_r	subtalar_angle_r	hip_flexion_l	hip_adduction_l	hip_rotation_l	knee_angle_l	ankle_angle_l	subtalar_angle_l	lumbar_extension	lumbar_bending	lumbar_rotation
      3.90000000	     -2.74560099	      5.37073326	     -8.56121883	     -1.07056496	      1.05705255	     -0.31816814	     -2.16511364	     -5.34997541	     -2.50321447	    -20.25993988	     19.64524743	     -1.95005533	     22.38903053	      3.40322788	     -6.40412135	    -15.52684018	      7.83066609	     -0.71817927	     -7.50055185	     -6.95769794	     -0.70596047
      3.91000000	     -2.74836579	      5.19399193	     -8.52162232	     -1.07875930	      1.05724994	     -0.31711244	     -1.92540558	     -5.01402829	     -2.71611873	    -19.89849655	     19.84813623	     -2.57757486	     22.54103380	      3.11000024	     -6.52636610	    -15.15403912	      8.76401028	     -0.55449247	     -7.72597183	     -6.76943007	     -0.85183424
      3.92000000	     -2.74373249	      5.01855544	     -8.49604305	     -1.08686025	      1.05739941	     -0.31606305	     -1.67747090	     -4.68324613	     -2.88078019	    -19.57657938	     20.04867621	     -3.14214155	     22.69133110	      2.80031312	     -6.73512847	    -14.82076955	      9.66978215	     -0.40881107	     -7.95830591	     -6.59345730	     -0.97958755
      3.93000000	     -2.73891528	      4.84592208	     -8.48676350	     -1.09486850	      1.05747221	     -0.31502835	     -1.40773995	     -4.36004817	     -2.99426614	    -19.30860420	     20.25725379	     -3.66612261	     22.86478819	      2.47101826	     -7.04735485	    -14.56386671	     10.50710616	     -0.26515799	     -8.19024066	     -6.42908464	     -1.09094803
      3.94000000	     -2.71535161	      4.65828186	     -8.50261988	     -1.10275387	      1.05751278	     -0.31398745	     -1.13978248	     -4.02766429	     -3.03186378	    -19.09428732	     20.43986803	     -4.00382921	     23.03804682	      2.10797342	     -7.43302639	    -14.39880408	     11.26290378	     -0.21156921	     -8.44340689	     -6.26162910	     -1.17074186
      3.95000000	     -2.74529994	      4.48632301	     -8.51120779	     -1.11054904	      1.05739329	     -0.31300146	     -0.76968497	     -3.70891329	     -3.04840745	    -18.98227287	     20.64689357	     -4.54252669	     23.33091643	      1.73331870	     -7.91764423	    -14.40257458	     11.86529933	     -0.04708465	     -8.63450387	     -6.11161715	     -1.25313060
      3.96000000	     -2.75884323	      4.29457687	     -8.52498266	     -1.11819666	      1.05727810	     -0.31205749	     -0.37877138	     -3.37930261	     -3.02126476	    -18.96990130	     20.81144678	     -4.91891192	     23.64747823	      1.33007269	     -8.42933654	    -14.57194611	     12.35728083	      0.01438275	     -8.84658513	     -5.94831024	     -1.33091242
      3.97000000	     -2.79650747	      4.08547117	     -8.51659154	     -1.12568625	      1.05713248	     -0.31119979	      0.08244827	     -3.03391184	     -2.98126580	    -19.07155837	     20.93767135	     -5.27639110	     24.04589880	      0.90193295	     -8.95409822	    -14.95075362	     12.73162808	      0.02932849	     -9.03124017	     -5.76661648	     -1.42050939
      3.98000000	     -2.82701976	      3.83429978	     -8.48773312	     -1.13300587	      1.05706885	     -0.31041787	      0.57196996	     -2.64958824	     -2.92378181	    -19.27040926	     20.99066235	     -5.55007272	     24.48688263	      0.42829675	     -9.47822427	    -15.55154079	     12.95225203	     -0.03113272	     -9.22795342	     -5.54388117	     -1.50558282
      3.99000000	     -2.85523120	      3.56332319	     -8.42475095	     -1.14012025	      1.05710234	     -0.30973582	      1.09471420	     -2.24907160	     -2.86923177	    -19.56157416	     20.97869095	     -5.78092730	     24.96530633	     -0.06089247	     -9.97984602	    -16.36398365	     13.06573811	     -0.15819894	     -9.42137224	     -5.30252825	     -1.61357777
